<?xml version="1.0" encoding="utf-8"?>
<!-- Generator: Adobe Illustrator 23.0.4, SVG Export Plug-In . SVG Version: 6.00 Build 0)  -->
<svg version="1.1" id="Laag_1" xmlns="http://www.w3.org/2000/svg" xmlns:xlink="http://www.w3.org/1999/xlink" x="0px" y="0px"
	 viewBox="0 0 113.9 92.9" style="enable-background:new 0 0 113.9 92.9;" xml:space="preserve">
<style type="text/css">
	.st0{fill:#4E4E4C;}
</style>
<g>
	<g>
		<path class="st0" d="M65.25,59.79c-0.09,0-0.18-0.01-0.27-0.04l-17.26-5.3c-0.48-0.15-0.75-0.66-0.6-1.14
			c0.15-0.48,0.66-0.75,1.14-0.61L65.52,58c0.48,0.15,0.75,0.66,0.6,1.14C66,59.53,65.64,59.79,65.25,59.79z"/>
	</g>
	<g>
		<path class="st0" d="M91.28,76.65H22.62c-1.01,0-1.83-0.82-1.83-1.83l0-14.83c0-0.48,0.19-0.95,0.54-1.29
			c0.34-0.34,0.81-0.54,1.29-0.54h19.26c1.01,0,1.83,0.82,1.83,1.83v4.68h26.49l0-4.68c0-0.48,0.19-0.95,0.54-1.29
			c0.34-0.34,0.81-0.54,1.29-0.54h19.26c1.01,0,1.83,0.82,1.83,1.83v14.83C93.11,75.83,92.29,76.65,91.28,76.65z M24.44,72.99h65.01
			V61.81H73.85l0,4.68c0,0.48-0.19,0.95-0.54,1.29c-0.34,0.34-0.81,0.54-1.29,0.54H41.88c-1.01,0-1.83-0.82-1.83-1.83v-4.68H24.44
			L24.44,72.99z"/>
	</g>
	<g>
		<path class="st0" d="M91.28,54.48H72.02c-0.5,0-0.91-0.41-0.91-0.91s0.41-0.91,0.91-0.91h19.26c0.5,0,0.91,0.41,0.91,0.91
			S91.79,54.48,91.28,54.48z"/>
	</g>
	<g>
		<path class="st0" d="M41.88,54.48H22.62c-0.5,0-0.91-0.41-0.91-0.91s0.41-0.91,0.91-0.91h19.26c0.5,0,0.91,0.41,0.91,0.91
			S42.38,54.48,41.88,54.48z"/>
	</g>
	<g>
		<g>
			<path class="st0" d="M65.87,45.31H48.1c-1.01,0-1.83-0.82-1.83-1.83V35.7c0-2.48-2.03-4.58-4.43-4.58h-7.58
				c-1.01,0-1.83-0.82-1.83-1.83l-0.01-11.22c0-0.48,0.19-0.95,0.53-1.29s0.81-0.54,1.29-0.54H79.7c1.01,0,1.83,0.82,1.83,1.83
				l0.01,11.22c0,0.48-0.19,0.95-0.53,1.29s-0.81,0.54-1.29,0.54h-7.58c-2.4,0-4.43,2.1-4.43,4.58v7.79
				C67.7,44.49,66.88,45.31,65.87,45.31z M49.93,41.66h14.11V35.7c0-4.46,3.7-8.23,8.08-8.23h5.75l0-7.56H36.09l0,7.56h5.75
				c4.38,0,8.08,3.77,8.08,8.23V41.66z"/>
		</g>
	</g>
</g>
</svg>
